<svg xmlns="http://www.w3.org/2000/svg" xmlns:xlink="http://www.w3.org/1999/xlink" viewBox="0 0 135.5 103.96"><defs><clipPath id="clip-path"><rect x="34.94" y="29.96" width="100.56" height="74.01" style="fill:none"/></clipPath></defs><title>brain-icon</title><g id="Layer_2" data-name="Layer 2"><g id="Layer_1-2" data-name="Layer 1"><path d="M4.94,69.14l17.43,1.64L24.9,71c2.59.24,5.1-2.42,5-4.94a5.1,5.1,0,0,0-4.94-5L7.54,59.44,5,59.2c-2.6-.24-5.1,2.41-5,4.93a5.11,5.11,0,0,0,4.94,5" style="fill:#ed386d"/><path d="M20.09,32.05l13.29,11.4,1.93,1.66c2,1.69,5.13,2,7,0,1.71-1.88,2.08-5.22,0-7L29,26.64,27.08,25c-2-1.69-5.14-2.05-7,0-1.7,1.88-2.07,5.22,0,7" style="fill:#ed386d"/><path d="M51.73,6.26q1.32,8.67,2.63,17.32l.39,2.51c.39,2.58,3.72,4.26,6.08,3.51,2.8-.88,3.93-3.32,3.51-6.08L61.71,6.2c-.13-.83-.25-1.67-.38-2.51C60.94,1.11,57.61-.57,55.24.18c-2.8.89-3.93,3.32-3.51,6.08" style="fill:#ed386d"/><g style="opacity:0.8899989724159241"><g style="clip-path:url(#clip-path)"><path d="M125.24,44.76a15,15,0,0,0-17.82-11.44c-1.09.24-2.59,1.19-3.72.83-1-.3-1.51-1.39-2.31-1.93a12.93,12.93,0,0,0-10.1-2,13.07,13.07,0,0,0-5,2.29l0,0h0l-.27.21h0c-1.17.85-5.37,4.36-4.57,9.84A10.2,10.2,0,0,1,89.7,44.1a8.9,8.9,0,0,1,16.37,4.74.44.44,0,0,1-.35.44h-.08a.46.46,0,0,1-.46-.44,8,8,0,0,0-15-3.88.44.44,0,0,1-.61.16l-.07-.05a9.34,9.34,0,0,0-13,1.77.45.45,0,0,1-.71-.54,10.14,10.14,0,0,1,4.73-3.43c-.89-5.59,3-9.3,4.59-10.57a17.86,17.86,0,0,0-25,9.87,15.52,15.52,0,0,0-14.89,11,17.29,17.29,0,0,0-.66,4.1,3.85,3.85,0,0,1-.07.52A20.49,20.49,0,0,1,56.62,54.4a.45.45,0,1,1,0,.89c-10.62-.54-17.33,8.39-17.4,8.48a.4.4,0,0,1-.19.15,16.38,16.38,0,0,0-2.27,3.55A19.81,19.81,0,0,0,59,95c1.2-.27,2.33-1.23,3.59-1.09a9.88,9.88,0,0,1-1.64-6.14.44.44,0,0,1,.48-.41.45.45,0,0,1,.41.48c-.43,5.06,4.21,8.65,4.26,8.68a.48.48,0,0,1,.13.16,8.77,8.77,0,0,0,2.7,1.5,16.7,16.7,0,0,0,9,.55,16.53,16.53,0,0,0,6.66-3.13l.07-.08c5.69-5.07,5.07-12.47,5.06-12.54a.45.45,0,0,1,.89-.09,17.08,17.08,0,0,1-3.6,11.46,16.81,16.81,0,0,0,13.64,2.94,20.63,20.63,0,0,0,6.85-3.17c2.19-1.47,4.73,1.72,6,3,1.85,2,3.19,4.6,5.53,6.06,3.37,2.12,5.83-1,5.42-4.38a27.33,27.33,0,0,0-1.35-5.7,5.53,5.53,0,0,1-.52-2.93c.28-1.17,1.28-1.22,2.24-1.68a13.8,13.8,0,0,0,5.75-19.71,12.23,12.23,0,0,1-3.67,1.74c-.28.08-.59.16-.92.23a16.68,16.68,0,0,1-10.15-1.18.46.46,0,0,1-.24-.59.47.47,0,0,1,.59-.24c8.79,3.71,14.16-.9,14.21-1l.12-.07a13,13,0,0,0-5.17-23.05M81.85,77.35l-.14.05a.44.44,0,0,1-.48-.2A9.52,9.52,0,0,0,68.29,74l-.06,0-.08,0a.45.45,0,0,1-.61-.14.44.44,0,0,1,0-.37,11.61,11.61,0,0,0-22,3.68.45.45,0,0,1-.49.39.44.44,0,0,1-.39-.49A12.5,12.5,0,0,1,68.22,73,10.4,10.4,0,0,1,82,76.73a.45.45,0,0,1-.14.62M116,59.93a.45.45,0,0,1-.6.2,10.55,10.55,0,0,0-14.72,12.78.45.45,0,0,1-.28.57h0a.44.44,0,0,1-.51-.3,11.43,11.43,0,0,1,16-13.85.44.44,0,0,1,.2.59" style="fill:#ed386d"/></g></g></g></g></svg>